<svg width="77" height="84" viewBox="0 0 77 84" fill="none" xmlns="http://www.w3.org/2000/svg">
<g clip-path="url(#clip0_2_3)">
<path d="M32.1836 12.7969C30.6345 12.9938 29.7924 13.2563 28.3486 14.0274C25.5664 15.5039 23.5361 17.9813 22.5586 21.0821C22.2578 22.0336 22.2879 22.0172 20.5433 21.5086C18.1521 20.8196 15.415 21.1641 13.1892 22.4274C11.7004 23.2805 9.73025 25.4133 8.9783 27.0211C8.2113 28.6454 7.82029 30.3844 7.82029 32.2383V33.7477L6.81267 34.0266C3.69959 34.8633 1.21814 37.5211 0.375953 40.9336C0.0601329 42.1805 0.0601329 44.5758 0.375953 45.8391C0.676734 47.1024 1.53396 48.8579 2.30095 49.8094L2.90252 50.5477L2.5867 50.9907C1.30838 52.7297 0.406031 55.1579 0.165406 57.3891C-0.511351 64.0172 3.59431 69.9727 9.60994 71.1211C11.4748 71.4821 60.5472 71.4821 62.7129 71.1375C68.157 70.2352 72.7138 66.6094 75.1652 61.261C76.3683 58.636 76.8496 56.3555 76.8646 53.2711C76.8646 48.2836 75.3908 44.2477 72.2476 40.6875C68.4277 36.3727 62.9986 34.3875 57.6748 35.3391C57.0131 35.4704 56.4566 35.536 56.4265 35.5196C56.3965 35.4868 56.3062 34.9289 56.231 34.2727C55.5392 28.2024 52.0802 22.9032 47.0271 20.1797C46.2301 19.7532 44.9968 19.2282 44.3051 19.0149C43.1019 18.6539 43.0267 18.6047 42.5455 17.8336C41.8537 16.7344 40.3047 15.2086 39.0865 14.4211C37.9135 13.6829 36.184 13.0266 35.041 12.8789C33.4469 12.6985 33.1611 12.6821 32.1836 12.7969ZM36.2291 15.9141C37.8533 16.6032 39.5527 17.8008 39.5527 18.2274C39.5527 18.3094 39.2068 18.375 38.7857 18.375C37.6127 18.375 35.1162 18.9821 33.6273 19.6383C31.2662 20.6555 29.5217 21.9516 27.7771 23.9368C25.025 27.0868 23.491 30.8766 23.2052 35.2571L23.115 36.668H20.5433C18.0468 36.668 17.9265 36.6844 16.6181 37.193C12.708 38.6696 9.71521 41.9016 8.43689 46.0032C8.19626 46.725 8.12107 46.8235 7.36912 47.168C6.91794 47.3649 6.13591 47.7914 5.63962 48.1196L4.75232 48.7266L4.24099 48.1852C3.97029 47.9063 3.50408 47.1352 3.21834 46.4954C1.21814 42.0985 3.95525 36.8321 8.42185 36.4711C10.3769 36.3071 10.7078 35.8969 10.392 34.043C9.88064 30.975 10.5875 28.4813 12.5576 26.3321C14.1066 24.6258 15.8963 23.7891 17.9717 23.7891C19.4756 23.7891 20.423 24.1008 22.3781 25.2493C23.5812 25.9547 24.1377 25.4789 24.5287 23.4118C25.2355 19.5727 27.6719 16.7508 31.191 15.6516C32.334 15.3071 35.1613 15.4547 36.2291 15.9141ZM42.5605 21.3282C46.4857 22.1977 49.8394 24.8063 51.9148 28.5797C53.148 30.8438 53.7947 33.3211 53.9 36.2414C53.9451 37.7344 53.9902 37.9641 54.306 38.325C54.7271 38.8172 55.0279 38.8008 56.998 38.2266C58.7576 37.7016 61.6 37.6852 63.5099 38.1938C67.8562 39.3586 71.3002 42.443 73.18 46.8563C74.0974 49.0055 74.3681 50.4657 74.3681 53.2383C74.3681 55.2399 74.2929 55.9454 74.0373 57.0282C73.3605 59.7516 72.0822 62.1633 70.3226 64.0829C67.766 66.8555 64.9086 68.25 61.0586 68.5946C59.8404 68.693 50.5463 68.7422 34.665 68.7094C11.5951 68.6438 10.0912 68.6274 9.249 68.3485C6.24119 67.3641 3.89509 64.9032 2.91755 61.6875C2.48142 60.2766 2.52654 57.3727 2.99275 55.7977C3.45896 54.2555 4.54177 52.4508 5.57947 51.4829C6.57205 50.5641 8.10603 49.6289 9.05349 49.3829C9.97087 49.1204 10.2717 48.7266 10.6627 47.25C11.189 45.3469 11.9109 44.0672 13.3697 42.4922C14.8736 40.8516 16.4377 39.9164 18.4078 39.4407C19.8064 39.1125 22.1676 39.1946 23.3707 39.6047C24.4986 39.9985 25.04 39.9493 25.416 39.4079C25.7168 39.0141 25.7468 38.8336 25.6717 37.6032C25.5664 36.1102 25.7619 33.9118 26.1078 32.4024C26.2281 31.861 26.7093 30.5977 27.1605 29.5805C29.251 24.9375 33.0558 21.9352 37.8984 21.1149C38.9812 20.918 41.207 21.0329 42.5605 21.3282Z" fill="#313131" fill-opacity="0.39"/>
<path d="M42.5605 21.3281C46.4857 22.1976 49.8395 24.8062 51.9148 28.5797C53.148 30.8437 53.7947 33.3211 53.9 36.2414C53.9451 37.7344 53.9902 37.964 54.3061 38.325C54.7271 38.8172 55.0279 38.8008 56.998 38.2265C58.7576 37.7015 61.6 37.6851 63.51 38.1937C67.8562 39.3586 71.3002 42.4429 73.1801 46.8562C74.0975 49.0054 74.3682 50.4656 74.3682 53.2383C74.3682 55.2398 74.293 55.9453 74.0373 57.0281C73.3605 59.7515 72.0822 62.1633 70.3227 64.0828C67.766 66.8555 64.9086 68.25 61.0586 68.5945C59.8404 68.693 50.5463 68.7422 34.665 68.7094C11.5951 68.6437 10.0912 68.6273 9.24902 68.3484C6.24121 67.364 3.89512 64.9031 2.91758 61.6875C2.48145 60.2765 2.52656 57.3726 2.99277 55.7976C3.45898 54.2554 4.5418 52.4508 5.57949 51.4828C6.57207 50.564 8.10605 49.6289 9.05351 49.3828C9.9709 49.1203 10.2717 48.7265 10.6627 47.25C11.1891 45.3469 11.9109 44.0672 13.3697 42.4922C14.8736 40.8515 16.4377 39.9164 18.4078 39.4406C19.8064 39.1125 22.1676 39.1945 23.3707 39.6047C24.4986 39.9984 25.04 39.9492 25.416 39.4078C25.7168 39.014 25.7469 38.8336 25.6717 37.6031C25.5664 36.1101 25.7619 33.9117 26.1078 32.4023C26.2281 31.8609 26.7094 30.5976 27.1605 29.5804C29.251 24.9375 33.0559 21.9351 37.8984 21.1148C38.9813 20.9179 41.207 21.0328 42.5605 21.3281Z" fill="white" fill-opacity="0.87"/>
<path d="M39.2641 17.5887C39.2641 17.1622 37.5647 15.9645 35.9404 15.2755C34.8727 14.8161 32.0453 14.6684 30.9024 15.013C27.3832 16.1122 24.9469 18.9341 24.2401 22.7731C23.849 24.8403 23.2926 25.3161 22.0895 24.6106C20.1344 23.4622 19.1869 23.1505 17.683 23.1505C15.6076 23.1505 13.818 23.9872 12.269 25.6934C10.2988 27.8426 9.59201 30.3364 10.1033 33.4044C10.4192 35.2583 10.0883 35.6684 8.13322 35.8325C3.66662 36.1934 0.929508 41.4598 2.9297 45.8567C3.21545 46.4965 3.68166 47.2676 3.95236 47.5465L4.46369 48.088L5.35099 47.4809C5.84728 47.1528 6.62931 46.7262 7.08048 46.5294C7.83244 46.1848 7.90763 46.0864 8.14826 45.3645C9.42658 41.2629 12.4193 38.0309 16.3295 36.5543C17.6379 36.0458 17.7582 36.0293 20.2547 36.0293H22.8264L22.9166 34.6184C23.2024 30.2379 24.7363 26.4481 27.4885 23.2981C29.233 21.313 30.9776 20.0169 33.3387 18.9997C34.8275 18.3434 37.324 17.7364 38.4971 17.7364C38.9182 17.7364 39.2641 17.6708 39.2641 17.5887Z" fill="#6E728D" fill-opacity="0.78"/>
</g>
<defs>
<clipPath id="clip0_2_3">
<rect width="77" height="84" fill="white"/>
</clipPath>
</defs>
</svg>
