<svg width="18" height="24" viewBox="0 0 18 24" fill="none" xmlns="http://www.w3.org/2000/svg">
<path d="M9 5.14291C8.19089 5.14291 7.39996 5.39426 6.72721 5.86519C6.05447 6.33611 5.53012 7.00546 5.22049 7.78858C4.91086 8.5717 4.82985 9.43342 4.9877 10.2648C5.14555 11.0961 5.53517 11.8598 6.10729 12.4592C6.67941 13.0585 7.40834 13.4667 8.2019 13.6321C8.99546 13.7974 9.81801 13.7126 10.5655 13.3882C11.313 13.0638 11.952 12.5145 12.4015 11.8097C12.851 11.1049 13.0909 10.2763 13.0909 9.42867C13.0909 8.29201 12.6599 7.20191 11.8927 6.39818C11.1255 5.59444 10.085 5.14291 9 5.14291ZM9 12.0001C8.51454 12.0001 8.03998 11.8493 7.63633 11.5668C7.23268 11.2842 6.91807 10.8826 6.7323 10.4127C6.54652 9.94285 6.49791 9.42581 6.59262 8.927C6.68733 8.42819 6.9211 7.97 7.26437 7.61037C7.60765 7.25075 8.04501 7.00584 8.52114 6.90662C8.99728 6.8074 9.4908 6.85832 9.93931 7.05295C10.3878 7.24758 10.7712 7.57717 11.0409 8.00004C11.3106 8.42292 11.4545 8.92008 11.4545 9.42867C11.4545 10.1107 11.1959 10.7647 10.7356 11.247C10.2753 11.7292 9.65099 12.0001 9 12.0001ZM9 0C6.61388 0.00283581 4.32627 0.997121 2.63903 2.76472C0.951787 4.53233 0.00270689 6.9289 0 9.42867C0 12.793 1.48398 16.3587 4.29545 19.7413C5.55875 21.2697 6.98058 22.6461 8.53466 23.8449C8.67223 23.9458 8.83612 24 9.00409 24C9.17206 24 9.33595 23.9458 9.47352 23.8449C11.0247 22.6456 12.4438 21.2693 13.7045 19.7413C16.5119 16.3587 18 12.793 18 9.42867C17.9973 6.9289 17.0482 4.53233 15.361 2.76472C13.6737 0.997121 11.3861 0.00283581 9 0ZM9 22.0716C7.30943 20.6788 1.63636 15.5627 1.63636 9.42867C1.63636 7.38269 2.41217 5.42051 3.79312 3.97379C5.17407 2.52706 7.04704 1.7143 9 1.7143C10.953 1.7143 12.8259 2.52706 14.2069 3.97379C15.5878 5.42051 16.3636 7.38269 16.3636 9.42867C16.3636 15.5605 10.6906 20.6788 9 22.0716Z" fill="#DCE4FF"/>
</svg>
