<svg width="160" height="113" viewBox="0 0 160 113" fill="none" xmlns="http://www.w3.org/2000/svg">
<path d="M64.5135 19.3272C64.5072 19.4509 64.511 19.5749 64.525 19.6981L55.6578 26.8348L53.0132 25.9166L51.0468 29.5627L56.8282 32.2017L66.5222 21.7692C67.0117 21.8544 67.5167 21.7946 67.9699 21.5978C68.4231 21.401 68.8031 21.0766 69.0594 20.6677C69.3156 20.2588 69.436 19.7847 69.4045 19.3086C69.373 18.8324 69.1911 18.3768 68.883 18.0022C68.5748 17.6276 68.1551 17.3519 67.6796 17.2117C67.2041 17.0714 66.6953 17.0733 66.221 17.2171C65.7466 17.361 65.3292 17.6398 65.0241 18.0167C64.7191 18.3936 64.5409 18.8506 64.5133 19.327L64.5135 19.3272Z" fill="#A0616A"/>
<path d="M52.6208 31.3118L44.058 28.3469C43.6687 28.2122 43.3109 28.0052 43.0051 27.7379C42.6992 27.4706 42.4513 27.1481 42.2754 26.7888C42.0995 26.4296 41.9991 26.0407 41.9799 25.6442C41.9608 25.2478 42.0232 24.8516 42.1637 24.4783C42.3042 24.105 42.52 23.7619 42.7988 23.4686C43.0775 23.1753 43.4138 22.9375 43.7884 22.7688C44.5449 22.4281 45.4115 22.3896 46.1977 22.6617L54.7605 25.6266C55.0225 25.7172 55.2362 25.904 55.3547 26.1458C55.4731 26.3875 55.4865 26.6645 55.3919 26.9158L53.9655 30.7061C53.8706 30.9572 53.6757 31.1619 53.4237 31.2754C53.1716 31.3889 52.8829 31.4019 52.6208 31.3116L52.6208 31.3118Z" fill="#2A2C39"/>
<path d="M46.3496 60.1878H49.2114L50.5728 49.6019H46.3492L46.3496 60.1878Z" fill="#A0616A"/>
<path d="M54.7302 62.7363L45.7361 62.7368L45.736 59.4042L51.255 59.4039C51.7113 59.4039 52.1632 59.4901 52.5848 59.6575C53.0064 59.825 53.3895 60.0704 53.7122 60.3799C54.0349 60.6893 54.2909 61.0567 54.4656 61.461C54.6402 61.8653 54.7301 62.2987 54.7302 62.7363Z" fill="#2F2E41"/>
<path d="M39.277 56.6423L41.618 58.2208L49.0808 50.3124L45.6259 47.9828L39.277 56.6423Z" fill="#A0616A"/>
<path d="M44.3222 62.8085L36.965 57.8488L38.9631 55.1227L43.4778 58.1662C43.8511 58.4178 44.169 58.7375 44.4135 59.107C44.658 59.4765 44.8241 59.8885 44.9026 60.3196C44.981 60.7507 44.9701 61.1924 44.8705 61.6194C44.7709 62.0464 44.5846 62.4505 44.3222 62.8085Z" fill="#2F2E41"/>
<path d="M52.6115 41.1188C52.6115 41.1188 59.7531 40.3108 58.4713 44.755C57.1894 49.1993 42.906 53.0377 42.906 53.0377L52.6115 41.1188Z" fill="#A0616A"/>
<path d="M47.6959 18.4411C50.8623 18.4411 53.4291 15.9795 53.4291 12.9429C53.4291 9.90634 50.8623 7.44472 47.6959 7.44472C44.5296 7.44472 41.9628 9.90634 41.9628 12.9429C41.9628 15.9795 44.5296 18.4411 47.6959 18.4411Z" fill="#A0616A"/>
<path d="M29.4123 52.1277C26.1499 48.4841 25.0085 42.8938 30.2109 38.2436C31.4957 37.1234 32.9506 36.1968 34.5256 35.4956L38.7182 24.2501C39.1537 23.0756 39.9523 22.0565 41.0075 21.3286C42.0626 20.6008 43.3241 20.1988 44.6237 20.1764C45.8853 20.1242 47.1329 20.4479 48.195 21.1029C49.2571 21.758 50.0817 22.7124 50.5556 23.835C51.0676 24.977 51.1262 26.2593 50.7202 27.44C49.472 31.1674 47.8328 34.7639 45.8279 38.1741L46.0447 39.8375L56.643 40.7409L56.5441 40.895C56.4925 40.9754 51.3055 48.5545 44.6699 53.5853C42.4009 55.3053 40.0549 56.0183 37.8405 56.0181C34.4828 56.0188 31.4289 54.3794 29.4123 52.1277Z" fill="#2A2C39"/>
<path d="M28.4121 14.6681C29.4264 13.5089 29.8615 11.9929 30.2116 10.5173C30.7653 8.18271 31.1938 5.76868 32.4241 3.68525C33.6544 1.60181 35.9151 -0.124409 38.4079 0.0070444C40.8866 0.137784 42.8903 2.05011 43.9539 4.22588C44.2114 4.13003 44.4871 4.0871 44.763 4.09987C45.0389 4.11263 45.3089 4.18082 45.5556 4.3C46.3221 4.70258 46.6088 5.84691 45.9707 6.41987C46.6418 6.11341 47.3727 5.94586 48.1158 5.9281C48.8589 5.91034 49.5976 6.04279 50.2838 6.31682C51.1662 6.67709 51.9279 7.26381 52.4851 8.01243C53.0423 8.76104 53.3733 9.64255 53.4419 10.5599C53.4686 10.9323 53.4153 11.3059 53.2853 11.6577C53.1553 12.0095 52.9514 12.3319 52.6861 12.605C51.5862 13.6909 50.0303 13.3164 48.647 13.0397C47.3403 12.7784 45.7489 12.7079 45.0127 13.9018C44.7226 14.3993 44.6414 14.9842 44.7857 15.5371C45.0676 16.729 45.9879 17.5591 46.8805 18.3538L47.0265 18.6138C43.8746 19.2032 40.4337 17.1389 39.606 14.1631C38.7784 11.1874 40.6936 7.75441 43.7334 6.76172C43.5311 6.76797 43.3306 6.72223 43.1529 6.62924C42.9751 6.53624 42.8265 6.39938 42.7224 6.23281C42.6183 6.06624 42.5626 5.87602 42.5609 5.68184C42.5592 5.48766 42.6117 5.29658 42.7128 5.12838C41.8717 4.67616 40.9197 4.44805 39.9556 4.46772C38.3854 4.56649 37.0266 5.6383 36.2094 6.92801C35.3922 8.21772 35.0221 9.71425 34.6474 11.1801C34.2727 12.6459 33.8671 14.1394 32.9932 15.3952C32.3881 16.2644 31.5794 16.986 30.6318 17.5023C29.6842 18.0187 28.6239 18.3154 27.5354 18.369C26.447 18.4225 25.3605 18.2314 24.3628 17.8107C23.3651 17.3901 22.4837 16.7516 21.7889 15.9463C22.8868 16.4569 24.129 16.6083 25.3251 16.3775C26.5213 16.1466 27.6057 15.5462 28.4121 14.6681Z" fill="#3D3C4F"/>
<path d="M72.6385 29.6246C71.2091 29.6246 69.8118 29.2181 68.6233 28.4565C67.4348 27.6949 66.5084 26.6125 65.9614 25.346C65.4144 24.0795 65.2713 22.6859 65.5501 21.3414C65.829 19.9969 66.5173 18.7619 67.5281 17.7926C68.5388 16.8232 69.8266 16.1631 71.2286 15.8957C72.6305 15.6282 74.0837 15.7655 75.4043 16.2901C76.7249 16.8147 77.8537 17.7031 78.6478 18.8429C79.4419 19.9827 79.8658 21.3227 79.8658 22.6936C79.8636 24.5311 79.1015 26.2929 77.7466 27.5922C76.3917 28.8916 74.5547 29.6225 72.6385 29.6246ZM72.6385 16.9177C71.4474 16.9177 70.2829 17.2564 69.2925 17.8911C68.3021 18.5258 67.5301 19.4278 67.0743 20.4832C66.6184 21.5386 66.4991 22.7 66.7315 23.8204C66.9639 24.9408 67.5375 25.97 68.3798 26.7777C69.2221 27.5855 70.2953 28.1356 71.4636 28.3585C72.6319 28.5813 73.8428 28.467 74.9433 28.0298C76.0439 27.5926 76.9845 26.8523 77.6463 25.9025C78.308 24.9526 78.6613 23.8359 78.6613 22.6936C78.6595 21.1622 78.0243 19.6941 76.8953 18.6113C75.7662 17.5285 74.2353 16.9194 72.6385 16.9177Z" fill="#FEC73A"/>
<path d="M72.4013 14.0297C72.2416 14.0297 72.0884 13.9689 71.9755 13.8606C71.8625 13.7522 71.7991 13.6053 71.7991 13.4522V6.80989C71.7991 6.6567 71.8625 6.50979 71.9755 6.40147C72.0884 6.29315 72.2416 6.2323 72.4013 6.2323C72.5611 6.2323 72.7143 6.29315 72.8272 6.40147C72.9402 6.50979 73.0036 6.6567 73.0036 6.80989V13.4522C73.0036 13.6053 72.9402 13.7523 72.8272 13.8606C72.7143 13.9689 72.5611 14.0297 72.4013 14.0297Z" fill="#FEC73A"/>
<path d="M63.0022 23.0439H56.076C55.9163 23.0439 55.7631 22.983 55.6502 22.8747C55.5372 22.7664 55.4738 22.6194 55.4738 22.4663C55.4738 22.3131 55.5372 22.1662 55.6502 22.0578C55.7631 21.9495 55.9163 21.8887 56.076 21.8887H63.0022C63.1619 21.8887 63.3151 21.9495 63.428 22.0578C63.541 22.1662 63.6044 22.3131 63.6044 22.4663C63.6044 22.6194 63.541 22.7664 63.428 22.8747C63.3151 22.983 63.1619 23.0439 63.0022 23.0439Z" fill="#FEC73A"/>
<path d="M88.2976 23.0439H81.3714C81.2117 23.0439 81.0585 22.983 80.9456 22.8747C80.8326 22.7664 80.7692 22.6194 80.7692 22.4663C80.7692 22.3131 80.8326 22.1662 80.9456 22.0578C81.0585 21.9495 81.2117 21.8887 81.3714 21.8887H88.2976C88.4573 21.8887 88.6105 21.9495 88.7235 22.0578C88.8364 22.1662 88.8999 22.3131 88.8999 22.4663C88.8999 22.6194 88.8364 22.7664 88.7235 22.8747C88.6105 22.983 88.4573 23.0439 88.2976 23.0439Z" fill="#FEC73A"/>
<path d="M81.1811 16.7284C81.0612 16.7284 80.9441 16.6941 80.8446 16.6299C80.7452 16.5656 80.668 16.4744 80.623 16.3678C80.5779 16.2613 80.5671 16.1442 80.5918 16.0317C80.6165 15.9192 80.6757 15.8163 80.7618 15.7363L83.6623 13.0376C83.719 12.9846 83.7861 12.9429 83.8597 12.9148C83.9332 12.8867 84.0118 12.8728 84.091 12.8739C84.1702 12.875 84.2483 12.8911 84.321 12.9212C84.3937 12.9513 84.4595 12.9948 84.5147 13.0493C84.5698 13.1038 84.6132 13.1682 84.6423 13.2388C84.6715 13.3094 84.6858 13.3848 84.6846 13.4607C84.6833 13.5367 84.6664 13.6116 84.6349 13.6813C84.6034 13.7509 84.5579 13.8139 84.501 13.8667L81.6005 16.5654C81.4883 16.6702 81.3378 16.7287 81.1811 16.7284Z" fill="#FEC73A"/>
<path d="M63.4935 16.7284C63.3369 16.7286 63.1864 16.6702 63.0742 16.5654L60.1736 13.8667C60.1167 13.8139 60.0712 13.7509 60.0397 13.6813C60.0082 13.6116 59.9913 13.5367 59.9901 13.4607C59.9888 13.3848 60.0031 13.3094 60.0323 13.2388C60.0615 13.1682 60.1048 13.1038 60.16 13.0493C60.2151 12.9948 60.2809 12.9513 60.3536 12.9212C60.4263 12.8911 60.5045 12.875 60.5836 12.8739C60.6628 12.8728 60.7414 12.8867 60.815 12.9148C60.8886 12.9429 60.9556 12.9846 61.0124 13.0376L63.9129 15.7363C63.9989 15.8163 64.0581 15.9192 64.0828 16.0317C64.1076 16.1442 64.0967 16.2613 64.0517 16.3678C64.0066 16.4744 63.9295 16.5656 63.83 16.6299C63.7306 16.6941 63.6134 16.7284 63.4935 16.7284Z" fill="#FEC73A"/>
<path d="M61.1952 32.5126C61.0769 32.5125 60.9612 32.4791 60.8625 32.4163C60.7639 32.3536 60.6867 32.2644 60.6406 32.1599C60.5945 32.0553 60.5815 31.9401 60.6033 31.8285C60.6251 31.7169 60.6807 31.614 60.7631 31.5325L63.6636 28.668C63.7749 28.5582 63.9271 28.4954 64.0868 28.4932C64.2464 28.491 64.4005 28.5497 64.515 28.6564C64.6296 28.763 64.6953 28.909 64.6977 29.0621C64.7001 29.2152 64.639 29.363 64.5279 29.4729L61.6274 32.3374C61.5713 32.3929 61.5041 32.437 61.4298 32.4671C61.3556 32.4972 61.2758 32.5126 61.1952 32.5126Z" fill="#FEC73A"/>
<path d="M84.6839 33.0902C84.6036 33.0903 84.524 33.0749 84.45 33.045C84.3759 33.0151 84.3089 32.9711 84.253 32.9159L80.7502 29.4737C80.6948 29.4195 80.6511 29.3553 80.6217 29.2849C80.5922 29.2144 80.5775 29.1391 80.5784 29.0632C80.5793 28.9873 80.5958 28.9123 80.627 28.8425C80.6581 28.7727 80.7033 28.7095 80.76 28.6565C80.8166 28.6035 80.8836 28.5617 80.9571 28.5336C81.0306 28.5054 81.1092 28.4914 81.1883 28.4924C81.2675 28.4934 81.3457 28.5093 81.4184 28.5393C81.4911 28.5693 81.5569 28.6127 81.6121 28.6672L85.1149 32.1093C85.1977 32.1906 85.2536 32.2935 85.2757 32.4052C85.2978 32.5168 85.285 32.6322 85.239 32.7369C85.193 32.8417 85.1158 32.931 85.017 32.9939C84.9183 33.0567 84.8024 33.0902 84.6839 33.0902Z" fill="#FEC73A"/>
<path d="M72.4013 38.866C72.2416 38.866 72.0884 38.8052 71.9755 38.6969C71.8625 38.5885 71.7991 38.4416 71.7991 38.2885V31.6462C71.7991 31.5703 71.8146 31.4952 71.8449 31.4252C71.8752 31.3551 71.9196 31.2914 71.9755 31.2378C72.0314 31.1841 72.0978 31.1416 72.1709 31.1126C72.2439 31.0835 72.3223 31.0686 72.4013 31.0686C72.4804 31.0686 72.5588 31.0835 72.6318 31.1126C72.7049 31.1416 72.7713 31.1841 72.8272 31.2378C72.8831 31.2914 72.9275 31.3551 72.9578 31.4252C72.988 31.4952 73.0036 31.5703 73.0036 31.6462V38.2885C73.0036 38.4416 72.9402 38.5885 72.8272 38.6969C72.7143 38.8052 72.5611 38.866 72.4013 38.866Z" fill="#FEC73A"/>
<path d="M64.8007 27.0056C64.7402 27.115 64.6888 27.2288 64.6469 27.346L53.4571 30.1917L51.4705 28.2826L48.0745 30.7811L52.138 35.5267L65.5366 30.0349C65.9419 30.3115 66.4255 30.4632 66.9229 30.4699C67.4203 30.4765 67.9081 30.3377 68.3213 30.072C68.7345 29.8064 69.0536 29.4263 69.2361 28.9825C69.4186 28.5387 69.4559 28.0521 69.343 27.5874C69.2301 27.1228 68.9724 26.7021 68.6041 26.3813C68.2359 26.0605 67.7745 25.8549 67.2814 25.7917C66.7883 25.7285 66.2868 25.8108 65.8437 26.0276C65.4005 26.2444 65.0367 26.5855 64.8006 27.0054L64.8007 27.0056Z" fill="#A0616A"/>
<path d="M48.7239 33.006L42.2869 26.832C41.9941 26.5514 41.7618 26.2182 41.6032 25.8515C41.4447 25.4848 41.363 25.0918 41.3629 24.6948C41.3628 24.2978 41.4443 23.9047 41.6026 23.5379C41.761 23.1711 41.9932 22.8378 42.2859 22.5571C42.5786 22.2764 42.9261 22.0538 43.3086 21.9019C43.691 21.75 44.1009 21.6719 44.5149 21.672C44.9288 21.6721 45.3387 21.7504 45.7211 21.9024C46.1035 22.0545 46.4509 22.2773 46.7434 22.5581L53.1808 28.7316C53.3778 28.9205 53.4884 29.1766 53.4885 29.4438C53.4885 29.7109 53.3779 29.9671 53.181 30.156L53.1808 30.1562L50.2097 33.0057C50.0125 33.1943 49.7454 33.3002 49.4669 33.3002C49.1884 33.3002 48.9213 33.1943 48.7241 33.0057L48.7239 33.006Z" fill="#2A2C39"/>
<path d="M98.3685 101.547H49.5423C39.0087 101.547 30.439 92.9773 30.439 82.4433C30.439 71.9093 39.0087 63.3392 49.5423 63.3392H53.0159C54.9269 59.5071 57.8717 56.2651 61.5288 53.967C65.2393 51.6337 69.5512 50.3932 73.9554 50.3919C86.1717 50.3919 96.3542 59.8398 97.3018 71.9708H98.3685C106.53 71.9708 113.171 78.6048 113.171 86.7591C113.171 94.9133 106.53 101.547 98.3685 101.547ZM49.5423 64.1438C39.4598 64.1438 31.2571 72.3529 31.2571 82.4433C31.2571 92.5336 39.4598 100.743 49.5423 100.743H98.3685C106.079 100.743 112.353 94.4697 112.353 86.7591C112.353 79.0484 106.079 72.7754 98.3685 72.7754H96.5351L96.5117 72.3976C95.7746 60.5092 85.8667 51.1965 73.9554 51.1965C65.3782 51.1965 57.4042 56.189 53.6409 63.9153L53.5296 64.1438H49.5423Z" fill="#6E728D"/>
</svg>
