<svg width="164" height="40" viewBox="0 0 164 40" fill="none" xmlns="http://www.w3.org/2000/svg">
<g clip-path="url(#clip0_10_382)">
<path d="M16.7188 6.09373C15.9141 6.18748 15.4766 6.31248 14.7266 6.67967C13.2813 7.3828 12.2266 8.56248 11.7188 10.039C11.5625 10.4922 11.5781 10.4844 10.6719 10.2422C9.4297 9.91405 8.00783 10.0781 6.85158 10.6797C6.07814 11.0859 5.0547 12.1015 4.66408 12.8672C4.26564 13.6406 4.06252 14.4687 4.06252 15.3515V16.0703L3.53908 16.2031C1.92189 16.6015 0.632829 17.8672 0.195329 19.4922C0.0312664 20.0859 0.0312664 21.2265 0.195329 21.8281C0.351579 22.4297 0.796891 23.2656 1.19533 23.7187L1.50783 24.0703L1.34377 24.2812C0.679704 25.1094 0.210954 26.2656 0.0859539 27.3281C-0.265609 30.4844 1.8672 33.3203 4.9922 33.8672C5.96095 34.039 31.4531 34.039 32.5781 33.875C35.4063 33.4453 37.7734 31.7187 39.0469 29.1719C39.6719 27.9219 39.9219 26.8359 39.9297 25.3672C39.9297 22.9922 39.1641 21.0703 37.5313 19.375C35.5469 17.3203 32.7266 16.375 29.961 16.8281C29.6172 16.8906 29.3281 16.9219 29.3125 16.914C29.2969 16.8984 29.25 16.6328 29.211 16.3203C28.8516 13.4297 27.0547 10.9062 24.4297 9.60936C24.0156 9.40623 23.375 9.15623 23.0156 9.05467C22.3906 8.8828 22.3516 8.85936 22.1016 8.49217C21.7422 7.96873 20.9375 7.24217 20.3047 6.86717C19.6953 6.51561 18.7969 6.20311 18.2031 6.1328C17.375 6.04686 17.2266 6.03905 16.7188 6.09373ZM18.8203 7.57811C19.6641 7.90623 20.5469 8.47655 20.5469 8.67967C20.5469 8.71873 20.3672 8.74998 20.1485 8.74998C19.5391 8.74998 18.2422 9.03905 17.4688 9.35155C16.2422 9.83592 15.336 10.4531 14.4297 11.3984C13 12.8984 12.2031 14.7031 12.0547 16.789L12.0078 17.4609H10.6719C9.37502 17.4609 9.31252 17.4687 8.63283 17.7109C6.60158 18.414 5.04689 19.9531 4.38283 21.9062C4.25783 22.25 4.21877 22.2969 3.82814 22.4609C3.59377 22.5547 3.18752 22.7578 2.9297 22.914L2.46877 23.2031L2.20314 22.9453C2.06252 22.8125 1.82033 22.4453 1.67189 22.1406C0.632829 20.0469 2.0547 17.539 4.37502 17.3672C5.39064 17.289 5.56252 17.0937 5.39845 16.2109C5.13283 14.75 5.50002 13.5625 6.52345 12.539C7.32814 11.7265 8.25783 11.3281 9.33595 11.3281C10.1172 11.3281 10.6094 11.4765 11.625 12.0234C12.25 12.3594 12.5391 12.1328 12.7422 11.1484C13.1094 9.3203 14.375 7.97655 16.2031 7.45311C16.7969 7.28905 18.2656 7.35936 18.8203 7.57811ZM22.1094 10.1562C24.1485 10.5703 25.8906 11.8125 26.9688 13.6094C27.6094 14.6875 27.9453 15.8672 28 17.2578C28.0235 17.9687 28.0469 18.0781 28.211 18.25C28.4297 18.4844 28.586 18.4765 29.6094 18.2031C30.5235 17.9531 32 17.9453 32.9922 18.1875C35.25 18.7422 37.0391 20.2109 38.0156 22.3125C38.4922 23.3359 38.6328 24.0312 38.6328 25.3515C38.6328 26.3047 38.5938 26.6406 38.4609 27.1562C38.1094 28.4531 37.4453 29.6015 36.5313 30.5156C35.2031 31.8359 33.7188 32.5 31.7188 32.664C31.086 32.7109 26.2578 32.7344 18.0078 32.7187C6.02345 32.6875 5.2422 32.6797 4.8047 32.5469C3.2422 32.0781 2.02345 30.9062 1.51564 29.375C1.28908 28.7031 1.31252 27.3203 1.5547 26.5703C1.79689 25.8359 2.35939 24.9765 2.89845 24.5156C3.41408 24.0781 4.21095 23.6328 4.70314 23.5156C5.1797 23.3906 5.33595 23.2031 5.53908 22.5C5.81252 21.5937 6.18752 20.9844 6.94533 20.2344C7.72658 19.4531 8.53908 19.0078 9.56252 18.7812C10.2891 18.625 11.5156 18.664 12.1406 18.8594C12.7266 19.0469 13.0078 19.0234 13.2031 18.7656C13.3594 18.5781 13.375 18.4922 13.336 17.9062C13.2813 17.1953 13.3828 16.1484 13.5625 15.4297C13.625 15.1719 13.875 14.5703 14.1094 14.0859C15.1953 11.875 17.1719 10.4453 19.6875 10.0547C20.25 9.96092 21.4063 10.0156 22.1094 10.1562Z" fill="#313131" fill-opacity="0.39"/>
<path d="M22.1094 10.1562C24.1484 10.5703 25.8906 11.8125 26.9687 13.6094C27.6094 14.6875 27.9453 15.8672 28 17.2578C28.0234 17.9687 28.0469 18.0781 28.2109 18.25C28.4297 18.4844 28.5859 18.4766 29.6094 18.2031C30.5234 17.9531 32 17.9453 32.9922 18.1875C35.25 18.7422 37.0391 20.2109 38.0156 22.3125C38.4922 23.3359 38.6328 24.0313 38.6328 25.3516C38.6328 26.3047 38.5937 26.6406 38.4609 27.1563C38.1094 28.4531 37.4453 29.6016 36.5312 30.5156C35.2031 31.8359 33.7187 32.5 31.7187 32.6641C31.0859 32.7109 26.2578 32.7344 18.0078 32.7188C6.02343 32.6875 5.24217 32.6797 4.80467 32.5469C3.24217 32.0781 2.02342 30.9063 1.51561 29.375C1.28905 28.7031 1.31249 27.3203 1.55467 26.5703C1.79686 25.8359 2.35936 24.9766 2.89842 24.5156C3.41405 24.0781 4.21092 23.6328 4.70311 23.5156C5.17967 23.3906 5.33592 23.2031 5.53905 22.5C5.81249 21.5937 6.18749 20.9844 6.9453 20.2344C7.72655 19.4531 8.53905 19.0078 9.56249 18.7813C10.289 18.625 11.5156 18.6641 12.1406 18.8594C12.7265 19.0469 13.0078 19.0234 13.2031 18.7656C13.3594 18.5781 13.375 18.4922 13.3359 17.9063C13.2812 17.1953 13.3828 16.1484 13.5625 15.4297C13.625 15.1719 13.875 14.5703 14.1094 14.0859C15.1953 11.875 17.1719 10.4453 19.6875 10.0547C20.25 9.96094 21.4062 10.0156 22.1094 10.1562Z" fill="white" fill-opacity="0.87"/>
<path d="M20.3969 8.37562C20.3969 8.17249 19.5141 7.60218 18.6703 7.27405C18.1156 7.05531 16.6469 6.98499 16.0531 7.14905C14.225 7.67249 12.9594 9.01624 12.5922 10.8444C12.3891 11.8287 12.1 12.0553 11.475 11.7194C10.4594 11.1725 9.96721 11.024 9.18596 11.024C8.10784 11.024 7.17815 11.4225 6.37346 12.235C5.35003 13.2584 4.98284 14.4459 5.24846 15.9069C5.41253 16.7897 5.24065 16.985 4.22503 17.0631C1.90472 17.235 0.482842 19.7428 1.5219 21.8365C1.67034 22.1412 1.91253 22.5084 2.05315 22.6412L2.31878 22.899L2.77972 22.61C3.03753 22.4537 3.44378 22.2506 3.67815 22.1569C4.06878 21.9928 4.10784 21.9459 4.23284 21.6022C4.8969 19.649 6.45159 18.11 8.48284 17.4069C9.16253 17.1647 9.22503 17.1569 10.5219 17.1569H11.8578L11.9047 16.485C12.0532 14.399 12.85 12.5944 14.2797 11.0944C15.186 10.1491 16.0922 9.53187 17.3188 9.04749C18.0922 8.73499 19.3891 8.44593 19.9985 8.44593C20.2172 8.44593 20.3969 8.41468 20.3969 8.37562Z" fill="#6E728D" fill-opacity="0.78"/>
</g>
<path d="M55.512 31.21C55.092 31.21 54.722 31.11 54.402 30.91C54.102 30.69 53.862 30.35 53.682 29.89L49.272 18.22C49.112 17.82 49.062 17.47 49.122 17.17C49.182 16.85 49.332 16.6 49.572 16.42C49.832 16.24 50.162 16.15 50.562 16.15C50.922 16.15 51.212 16.24 51.432 16.42C51.672 16.58 51.872 16.9 52.032 17.38L55.962 28.45H55.242L59.322 17.26C59.462 16.88 59.652 16.6 59.892 16.42C60.132 16.24 60.442 16.15 60.822 16.15C61.202 16.15 61.512 16.24 61.752 16.42C62.012 16.6 62.202 16.88 62.322 17.26L66.312 28.45H65.652L69.642 17.32C69.802 16.86 70.002 16.55 70.242 16.39C70.502 16.23 70.792 16.15 71.112 16.15C71.512 16.15 71.812 16.25 72.012 16.45C72.232 16.65 72.352 16.91 72.372 17.23C72.412 17.53 72.362 17.86 72.222 18.22L67.812 29.89C67.632 30.33 67.382 30.66 67.062 30.88C66.762 31.1 66.412 31.21 66.012 31.21C65.592 31.21 65.222 31.1 64.902 30.88C64.602 30.66 64.362 30.33 64.182 29.89L59.982 18.52H61.482L57.312 29.89C57.152 30.33 56.912 30.66 56.592 30.88C56.292 31.1 55.932 31.21 55.512 31.21ZM77.0431 31.18C76.5631 31.18 76.1931 31.04 75.9331 30.76C75.6731 30.46 75.5431 30.05 75.5431 29.53V17.83C75.5431 17.31 75.6731 16.91 75.9331 16.63C76.1931 16.35 76.5631 16.21 77.0431 16.21C77.5231 16.21 77.8931 16.35 78.1531 16.63C78.4331 16.91 78.5731 17.31 78.5731 17.83V29.53C78.5731 30.05 78.4431 30.46 78.1831 30.76C77.9231 31.04 77.5431 31.18 77.0431 31.18ZM77.0431 13.09C76.4431 13.09 75.9731 12.94 75.6331 12.64C75.3131 12.34 75.1531 11.92 75.1531 11.38C75.1531 10.82 75.3131 10.4 75.6331 10.12C75.9731 9.82 76.4431 9.67 77.0431 9.67C77.6431 9.67 78.1031 9.82 78.4231 10.12C78.7631 10.4 78.9331 10.82 78.9331 11.38C78.9331 11.92 78.7631 12.34 78.4231 12.64C78.1031 12.94 77.6431 13.09 77.0431 13.09ZM84.338 31.21C83.858 31.21 83.488 31.08 83.228 30.82C82.968 30.54 82.838 30.16 82.838 29.68V17.68C82.838 17.18 82.968 16.8 83.228 16.54C83.488 16.28 83.848 16.15 84.308 16.15C84.788 16.15 85.148 16.28 85.388 16.54C85.648 16.8 85.778 17.18 85.778 17.68V20.02L85.448 19.48C85.888 18.36 86.578 17.52 87.518 16.96C88.458 16.38 89.538 16.09 90.758 16.09C91.918 16.09 92.878 16.31 93.638 16.75C94.418 17.17 94.998 17.82 95.378 18.7C95.758 19.56 95.948 20.65 95.948 21.97V29.68C95.948 30.16 95.818 30.54 95.558 30.82C95.298 31.08 94.928 31.21 94.448 31.21C93.948 31.21 93.568 31.08 93.308 30.82C93.048 30.54 92.918 30.16 92.918 29.68V22.15C92.918 20.89 92.668 19.97 92.168 19.39C91.688 18.81 90.928 18.52 89.888 18.52C88.668 18.52 87.688 18.9 86.948 19.66C86.228 20.42 85.868 21.44 85.868 22.72V29.68C85.868 30.7 85.358 31.21 84.338 31.21ZM105.703 31.27C104.423 31.27 103.293 30.97 102.313 30.37C101.353 29.75 100.603 28.87 100.063 27.73C99.5232 26.57 99.2532 25.22 99.2532 23.68C99.2532 22.1 99.5232 20.75 100.063 19.63C100.603 18.51 101.353 17.64 102.313 17.02C103.293 16.4 104.423 16.09 105.703 16.09C106.983 16.09 108.083 16.41 109.003 17.05C109.943 17.67 110.573 18.51 110.893 19.57H110.563V11.17C110.563 10.67 110.693 10.29 110.953 10.03C111.213 9.77 111.583 9.64 112.063 9.64C112.543 9.64 112.913 9.77 113.173 10.03C113.453 10.29 113.593 10.67 113.593 11.17V29.68C113.593 30.16 113.463 30.54 113.203 30.82C112.943 31.08 112.573 31.21 112.093 31.21C111.613 31.21 111.243 31.08 110.983 30.82C110.723 30.54 110.593 30.16 110.593 29.68V27.04L110.923 27.7C110.603 28.78 109.973 29.65 109.033 30.31C108.113 30.95 107.003 31.27 105.703 31.27ZM106.483 28.93C107.303 28.93 108.023 28.73 108.643 28.33C109.263 27.93 109.743 27.34 110.083 26.56C110.443 25.78 110.623 24.82 110.623 23.68C110.623 21.96 110.243 20.66 109.483 19.78C108.723 18.9 107.723 18.46 106.483 18.46C105.643 18.46 104.913 18.66 104.293 19.06C103.673 19.44 103.183 20.02 102.823 20.8C102.483 21.58 102.313 22.54 102.313 23.68C102.313 25.38 102.693 26.68 103.453 27.58C104.213 28.48 105.223 28.93 106.483 28.93ZM119.318 31.12C118.738 31.12 118.268 30.94 117.908 30.58C117.548 30.22 117.368 29.76 117.368 29.2C117.368 28.64 117.548 28.19 117.908 27.85C118.268 27.49 118.738 27.31 119.318 27.31C119.898 27.31 120.358 27.49 120.698 27.85C121.038 28.19 121.208 28.64 121.208 29.2C121.208 29.76 121.038 30.22 120.698 30.58C120.358 30.94 119.898 31.12 119.318 31.12ZM126.952 36.61C126.592 36.61 126.292 36.51 126.052 36.31C125.832 36.13 125.702 35.88 125.662 35.56C125.642 35.26 125.702 34.93 125.842 34.57L127.882 29.98V31.27L122.272 18.22C122.132 17.86 122.082 17.52 122.122 17.2C122.162 16.88 122.312 16.63 122.572 16.45C122.832 16.25 123.182 16.15 123.622 16.15C124.002 16.15 124.302 16.24 124.522 16.42C124.742 16.6 124.942 16.91 125.122 17.35L129.652 28.54H128.812L133.402 17.35C133.582 16.89 133.792 16.58 134.032 16.42C134.272 16.24 134.602 16.15 135.022 16.15C135.382 16.15 135.662 16.25 135.862 16.45C136.082 16.63 136.212 16.88 136.252 17.2C136.312 17.5 136.262 17.83 136.102 18.19L128.602 35.44C128.402 35.9 128.172 36.21 127.912 36.37C127.672 36.53 127.352 36.61 126.952 36.61Z" fill="#F0F0F0"/>
<defs>
<clipPath id="clip0_10_382">
<rect width="40" height="40" fill="white"/>
</clipPath>
</defs>
</svg>
